<?xml version="1.0" standalone="no"?>
<!DOCTYPE svg PUBLIC "-//W3C//DTD SVG 20010904//EN"
 "http://www.w3.org/TR/2001/REC-SVG-20010904/DTD/svg10.dtd">
<svg version="1.0" xmlns="http://www.w3.org/2000/svg"
 width="640.000000pt" height="640.000000pt" viewBox="0 0 640.000000 640.000000"
 preserveAspectRatio="xMidYMid meet">
<metadata>
Created by potrace 1.16, written by Peter Selinger 2001-2019
</metadata>
<g transform="translate(0.000000,640.000000) scale(0.100000,-0.100000)"
fill="#000000" stroke="none">
<path d="M2170 5854 c-30 -8 -93 -33 -140 -56 -105 -50 -220 -161 -265 -252
-42 -86 -43 -139 -4 -307 24 -106 33 -169 33 -240 1 -105 6 -93 -94 -238 -31
-44 -39 -51 -70 -51 -115 -1 -231 -40 -286 -97 -73 -75 -92 -163 -101 -468 -5
-176 10 -683 24 -802 l6 -53 268 0 c148 0 269 2 269 5 0 3 -9 59 -20 123 -11
64 -23 132 -26 151 l-5 33 43 -35 c104 -85 225 -115 285 -71 48 35 77 107 82
204 4 105 -10 169 -65 294 -81 182 -99 270 -70 340 16 38 52 67 150 121 126
70 132 113 41 305 -69 148 -102 242 -111 318 -11 105 33 203 98 216 18 3 49
20 70 36 20 17 41 30 46 30 31 0 116 35 151 63 44 35 105 112 126 161 l13 30
21 -35 c40 -65 45 -105 22 -183 -21 -70 -27 -127 -15 -139 3 -3 19 19 35 49
16 30 43 79 59 110 48 89 39 199 -25 296 -40 61 -86 87 -212 124 -133 38 -235
44 -333 18z"/>
<path d="M2518 4846 c-50 -46 -82 -57 -134 -49 -29 5 -32 3 -37 -28 -27 -150
-21 -199 31 -246 34 -31 37 -38 40 -103 5 -77 -1 -72 98 -90 100 -19 219 17
266 81 60 80 9 226 -132 378 -28 30 -53 65 -56 78 -9 32 -22 29 -76 -21z"/>
<path d="M4371 3783 c-73 -235 -133 -429 -134 -430 -2 -1 -122 -5 -267 -9
-146 -4 -276 -10 -290 -14 -14 -3 -26 -14 -28 -23 -3 -16 48 -17 712 -17 394
0 716 2 716 4 0 4 84 251 224 660 48 138 86 251 86 253 0 2 -199 3 -443 3
l-443 0 -133 -427z"/>
<path d="M2800 3590 c0 -5 -15 -12 -34 -16 -49 -9 -81 -46 -81 -96 0 -57 38
-88 106 -88 44 0 54 -4 76 -30 39 -47 79 -64 153 -64 69 0 111 15 151 57 35
36 68 119 75 185 l7 62 -227 0 c-137 0 -226 -4 -226 -10z"/>
<path d="M1426 3098 c-3 -13 -14 -77 -25 -143 -12 -66 -31 -168 -43 -227 l-22
-107 26 -130 c14 -71 35 -150 47 -175 19 -45 21 -46 65 -47 72 -2 71 -2 68
-34 -3 -30 -179 -829 -298 -1353 -35 -155 -64 -285 -64 -287 0 -3 11 -5 24 -5
21 0 27 8 41 53 52 175 235 813 237 826 2 9 6 18 9 21 8 6 512 -10 519 -16 4
-5 18 -537 19 -766 l1 -118 35 0 c44 0 42 -7 50 320 3 140 8 324 12 409 l6
153 171 -6 c312 -12 352 -16 353 -36 1 -10 20 -76 42 -147 66 -213 64 -202 35
-244 l-25 -36 33 -64 c32 -63 33 -66 33 -204 0 -163 11 -196 94 -282 71 -74
134 -108 193 -104 21 1 40 64 34 107 -3 16 -10 64 -17 106 -11 70 -14 77 -38
83 -51 13 -168 73 -174 89 -4 10 -12 72 -17 139 -6 67 -18 153 -26 191 -14 60
-14 71 -2 80 10 8 12 21 7 44 -3 17 -5 32 -3 32 3 0 77 -41 165 -90 89 -50
166 -89 171 -88 5 2 82 134 169 293 88 160 165 294 170 300 7 7 9 -32 5 -125
-16 -356 -27 -643 -24 -645 2 -2 95 -13 208 -25 113 -12 223 -24 246 -27 l40
-5 12 128 c113 1193 120 1928 20 2141 l-20 43 -567 0 c-337 0 -572 -4 -581
-10 -23 -14 -4 -26 110 -70 114 -43 130 -54 113 -71 -9 -9 -26 -8 -71 5 -60
16 -131 22 -118 9 4 -5 50 -24 103 -43 53 -19 98 -41 101 -47 6 -22 -70 -15
-150 12 -85 29 -78 27 -78 16 0 -5 28 -19 63 -30 72 -24 107 -46 107 -67 0
-19 -11 -18 -80 10 -61 25 -120 41 -120 33 0 -3 25 -19 55 -36 57 -32 70 -51
34 -51 -23 0 -129 51 -203 99 -28 17 -52 27 -56 22 -3 -5 -51 18 -107 53
l-101 62 -146 12 c-106 9 -187 23 -302 52 l-157 40 -203 0 c-203 0 -204 0
-208 -22z m1954 -502 c0 -5 -96 -209 -400 -849 -135 -285 -186 -384 -192 -370
-4 10 -19 72 -33 138 -14 66 -39 176 -55 245 -16 69 -41 177 -55 240 -14 63
-30 133 -35 155 -21 87 -22 85 88 85 110 1 234 15 275 31 54 23 27 82 -49 105
-59 18 -363 38 -464 31 -117 -8 -63 7 280 77 266 55 389 78 580 109 38 6 60 7
60 3z m-1442 -346 l62 0 1 -162 c1 -90 4 -239 8 -332 l6 -168 -240 7 c-132 4
-243 9 -247 11 -4 3 -3 15 2 27 8 19 109 361 130 442 5 17 19 65 32 109 l23
78 80 -6 c44 -3 108 -6 143 -6z m475 -27 c31 -114 191 -623 199 -637 10 -19 6
-19 -158 -13 -92 4 -201 7 -242 7 l-75 0 7 243 c4 133 9 281 13 330 l6 87 122
0 c108 0 123 -2 128 -17z"/>
<path d="M3612 763 c-15 -29 -62 -163 -62 -178 0 -8 28 -20 73 -31 85 -20 233
-70 334 -113 169 -70 383 -102 391 -58 5 24 -20 50 -90 98 -50 34 -64 39 -115
39 -109 0 -207 44 -382 170 -63 45 -120 84 -127 87 -7 2 -17 -4 -22 -14z"/>
</g>
</svg>
