<?xml version="1.0" standalone="no"?>
<!DOCTYPE svg PUBLIC "-//W3C//DTD SVG 20010904//EN"
 "http://www.w3.org/TR/2001/REC-SVG-20010904/DTD/svg10.dtd">
<svg version="1.0" xmlns="http://www.w3.org/2000/svg"
 width="375.000000pt" height="134.000000pt" viewBox="0 0 375.000000 134.000000"
 preserveAspectRatio="xMidYMid meet">
<metadata>
Created by potrace 1.16, written by Peter Selinger 2001-2019
</metadata>
<g transform="translate(0.000000,134.000000) scale(0.100000,-0.100000)"
fill="#000000" stroke="none">
<path d="M1639 1056 c53 -54 91 -99 87 -105 -4 -6 -39 -11 -85 -11 l-78 0 -7
-70 c-6 -64 -4 -99 10 -184 l4 -29 -50 6 c-55 7 -54 8 -65 -56 l-6 -39 48 4
48 3 -2 -152 -3 -153 60 0 60 0 0 156 0 157 45 -5 45 -6 0 34 c0 23 5 34 14
34 19 0 31 -139 23 -272 l-5 -98 59 0 59 0 0 75 0 74 78 3 c72 3 77 4 80 27 2
12 1 34 -2 47 -6 23 -11 24 -82 24 l-75 0 3 28 3 27 85 -3 85 -2 -3 50 -4 50
-42 0 -42 0 7 63 c7 57 4 139 -7 194 -4 19 -9 21 -63 19 -33 -2 -66 1 -73 5
-14 9 -6 44 31 137 30 76 12 64 -33 -22 -56 -107 -68 -107 -190 1 -52 46 -98
83 -103 83 -4 0 34 -42 86 -94z m299 -263 l3 -113 -141 0 -140 0 -1 38 c0 20
-1 69 -2 107 l-2 70 70 6 c39 3 102 5 140 5 l70 -1 3 -112z"/>
<path d="M785 665 c-115 -42 -167 -188 -108 -302 47 -91 172 -130 269 -83 53
26 99 89 109 151 14 82 -35 188 -104 224 -44 22 -121 27 -166 10z m121 -110
c67 -46 49 -161 -30 -189 -52 -18 -116 37 -116 99 0 32 24 81 47 94 26 15 75
13 99 -4z"/>
<path d="M2236 665 c-166 -59 -182 -303 -26 -382 96 -49 209 -19 264 71 25 39
30 58 30 109 -1 104 -56 180 -149 206 -51 14 -71 13 -119 -4z m115 -105 c23
-13 49 -61 49 -92 0 -34 -36 -87 -66 -99 -35 -13 -87 4 -108 36 -9 13 -16 43
-16 65 0 75 77 124 141 90z"/>
<path d="M3183 670 c-68 -16 -123 -73 -143 -149 -35 -133 61 -261 196 -261
185 1 273 223 140 356 -56 56 -115 73 -193 54z m118 -129 c40 -41 41 -98 0
-143 -40 -45 -92 -45 -132 0 -86 96 42 233 132 143z"/>
<path d="M294 663 c-7 -5 -10 -74 -10 -200 l1 -193 58 0 57 0 0 45 0 45 63 0
c43 0 71 6 93 19 87 53 84 213 -5 265 -26 15 -58 20 -140 23 -58 2 -111 0
-117 -4z"/>
<path d="M1120 664 c-13 -4 -15 -35 -16 -199 l-2 -195 61 0 60 0 -7 65 -7 65
29 0 c30 0 40 -15 72 -102 9 -26 13 -28 70 -28 33 0 60 2 60 5 0 3 -16 38 -36
77 -35 70 -36 72 -16 87 30 24 42 55 42 105 0 55 -35 101 -88 116 -35 9 -191
12 -222 4z"/>
<path d="M2555 660 c-2 -3 -3 -91 -3 -196 l1 -192 131 -4 c72 -3 134 -2 137 1
4 3 10 25 14 49 l7 42 -93 0 -92 0 6 153 6 153 -55 0 c-31 -1 -57 -3 -59 -6z"/>
<path d="M2872 469 l-1 -199 59 0 58 0 0 198 0 199 -58 0 -58 1 0 -199z"/>
</g>
</svg>
